<svg width="400" height="300" viewBox="0 0 400 300" fill="none" xmlns="http://www.w3.org/2000/svg">
  <!-- Background -->
  <rect width="400" height="300" fill="#F0FDF4"/>
  
  <!-- Shield (Best Practices) -->
  <path d="M200 50 L150 80 L150 140 Q150 180 200 200 Q250 180 250 140 L250 80 Z" fill="#10B981" stroke="#059669" stroke-width="2"/>
  
  <!-- Shield Content -->
  <circle cx="200" cy="120" r="25" fill="white"/>
  <path d="M190 120 L195 125 L210 110" stroke="#10B981" stroke-width="3" fill="none"/>
  
  <!-- Warning Signs -->
  <circle cx="80" cy="80" r="20" fill="#F59E0B"/>
  <text x="80" y="88" text-anchor="middle" fill="white" font-size="16" font-weight="bold" font-family="Arial">!</text>
  
  <circle cx="320" cy="80" r="20" fill="#EF4444"/>
  <text x="320" y="88" text-anchor="middle" fill="white" font-size="16" font-weight="bold" font-family="Arial">X</text>
  
  <circle cx="80" cy="200" r="20" fill="#EF4444"/>
  <text x="80" y="208" text-anchor="middle" fill="white" font-size="16" font-weight="bold" font-family="Arial">X</text>
  
  <circle cx="320" cy="200" r="20" fill="#F59E0B"/>
  <text x="320" y="208" text-anchor="middle" fill="white" font-size="16" font-weight="bold" font-family="Arial">!</text>
  
  <!-- Best Practice Items -->
  <!-- Item 1 -->
  <rect x="120" y="80" width="60" height="40" fill="#DCFCE7" rx="4" stroke="#10B981" stroke-width="1"/>
  <circle cx="130" cy="90" r="5" fill="#10B981"/>
  <path d="M127 90 L129 92 L133 88" stroke="white" stroke-width="1" fill="none"/>
  <text x="140" y="95" fill="#1F2937" font-size="8" font-family="Arial">Proper Planning</text>
  <text x="140" y="105" fill="#1F2937" font-size="8" font-family="Arial">Phase</text>
  
  <!-- Item 2 -->
  <rect x="220" y="80" width="60" height="40" fill="#DCFCE7" rx="4" stroke="#10B981" stroke-width="1"/>
  <circle cx="230" cy="90" r="5" fill="#10B981"/>
  <path d="M227 90 L229 92 L233 88" stroke="white" stroke-width="1" fill="none"/>
  <text x="240" y="95" fill="#1F2937" font-size="8" font-family="Arial">User Training</text>
  <text x="240" y="105" fill="#1F2937" font-size="8" font-family="Arial">Program</text>
  
  <!-- Item 3 -->
  <rect x="120" y="200" width="60" height="40" fill="#DCFCE7" rx="4" stroke="#10B981" stroke-width="1"/>
  <circle cx="130" cy="210" r="5" fill="#10B981"/>
  <path d="M127 210 L129 212 L133 208" stroke="white" stroke-width="1" fill="none"/>
  <text x="140" y="215" fill="#1F2937" font-size="8" font-family="Arial">Data Backup</text>
  <text x="140" y="225" fill="#1F2937" font-size="8" font-family="Arial">Strategy</text>
  
  <!-- Item 4 -->
  <rect x="220" y="200" width="60" height="40" fill="#DCFCE7" rx="4" stroke="#10B981" stroke-width="1"/>
  <circle cx="230" cy="210" r="5" fill="#10B981"/>
  <path d="M227 210 L229 212 L233 208" stroke="white" stroke-width="1" fill="none"/>
  <text x="240" y="215" fill="#1F2937" font-size="8" font-family="Arial">Testing</text>
  <text x="240" y="225" fill="#1F2937" font-size="8" font-family="Arial">Protocol</text>
  
  <!-- Central Success Path -->
  <path d="M200 200 Q200 160 200 120" stroke="#10B981" stroke-width="4" fill="none" stroke-dasharray="5,5"/>
  
  <!-- Success Indicators -->
  <circle cx="200" cy="160" r="8" fill="#10B981"/>
  <path d="M196 160 L198 162 L204 156" stroke="white" stroke-width="2" fill="none"/>
  
  <!-- Light Bulb (Innovation) -->
  <circle cx="200" cy="250" r="15" fill="#F59E0B"/>
  <rect x="195" y="265" width="10" height="8" fill="#92400E" rx="2"/>
  <path d="M190 265 Q200 255 210 265" stroke="#92400E" stroke-width="2" fill="none"/>
  
  <!-- Rays of Light -->
  <line x1="200" y1="235" x2="200" y2="225" stroke="#F59E0B" stroke-width="2"/>
  <line x1="190" y1="245" x2="180" y2="240" stroke="#F59E0B" stroke-width="2"/>
  <line x1="210" y1="245" x2="220" y2="240" stroke="#F59E0B" stroke-width="2"/>
  <line x1="190" y1="255" x2="180" y2="260" stroke="#F59E0B" stroke-width="2"/>
  <line x1="210" y1="255" x2="220" y2="260" stroke="#F59E0B" stroke-width="2"/>
</svg>
