<svg width="32" height="32" viewBox="0 0 32 32" fill="none" xmlns="http://www.w3.org/2000/svg">
  <defs>
    <linearGradient id="faviconGradient" x1="0%" y1="0%" x2="100%" y2="100%">
      <stop offset="0%" style="stop-color:#7C3AED;stop-opacity:1" />
      <stop offset="100%" style="stop-color:#2563EB;stop-opacity:1" />
    </linearGradient>
  </defs>
  
  <!-- Background circle -->
  <circle cx="16" cy="16" r="15" fill="url(#faviconGradient)" stroke="white" stroke-width="1"/>
  
  <!-- Simplified campus building icon -->
  <rect x="8" y="12" width="12" height="8" rx="1" fill="white" opacity="0.9"/>
  <rect x="9" y="14" width="2" height="2" rx="0.3" fill="url(#faviconGradient)"/>
  <rect x="12" y="14" width="2" height="2" rx="0.3" fill="url(#faviconGradient)"/>
  <rect x="15" y="14" width="2" height="2" rx="0.3" fill="url(#faviconGradient)"/>
  <rect x="18" y="14" width="2" height="2" rx="0.3" fill="url(#faviconGradient)"/>
  
  <!-- Roof -->
  <polygon points="14,8 8,12 20,12" fill="white" opacity="0.8"/>
  
  <!-- Small side building -->
  <rect x="18" y="16" width="6" height="4" rx="0.5" fill="white" opacity="0.7"/>
  <rect x="19" y="17" width="1" height="1" rx="0.2" fill="url(#faviconGradient)"/>
  <rect x="21" y="17" width="1" height="1" rx="0.2" fill="url(#faviconGradient)"/>
  
  <!-- Connection dot -->
  <circle cx="14" cy="10" r="0.8" fill="white"/>
  <circle cx="21" cy="18" r="0.5" fill="white"/>
</svg>

